<svg width="127" height="36" fill="none" xmlns="http://www.w3.org/2000/svg"><path d="M32.065 35.914c-7.253.333-7.317-13.336-8.298-18.575C21.442 4.926 16.44.082 7.688.036a7.896 7.896 0 0 0-2.954.51c3.269-1.21 9.326.31 10.675 8.615 1.35 8.304-5.544 18.7 6.971 25.04 3.105 1.57 6.31 2.007 9.685 1.713Z" fill="url(#a)"/><path d="M10.872 22.892c-1.97-5 1.251-9.944.645-15.579-.527-4.904-5.5-8.223-8.864-5.512-4.155 3.348-2.788 8.162-.26 11.126l8.48 9.965Z" fill="url(#b)"/><path d="M14.288 0c8.082 0 12.457 8.231 14.555 16.757 2.32 9.432 8.32 23.105 16.225 11.196a17.514 17.514 0 0 0 2.942-9.383s-.805 4.046-4.612 4.046c-2.982 0-6.136-1.008-10.327-10.756C28.879 2.113 23.103 0 14.288 0Z" fill="url(#c)"/><path d="M25.285.042c3.12 0 8.612 2.871 12.019 10.264C40.71 17.7 44 16.972 45.407 16.091c1.644-1.03 2.029-5.003-.986-8.929-3.947-5.14-8.46-7.46-19.136-7.12Z" fill="url(#d)"/><path d="M109.423 14.017h4.601a1.002 1.002 0 0 0 .708-1.707 1.001 1.001 0 0 0-.708-.293h-4.601a4.406 4.406 0 0 0-4.401 4.4v3.2a4.408 4.408 0 0 0 4.401 4.4h4.601a1.002 1.002 0 0 0 .708-1.707 1.002 1.002 0 0 0-.708-.293h-4.601a2.403 2.403 0 0 1-2.4-2.4v-.6h5.001a1 1 0 1 0 0-2h-5.001v-.6a2.404 2.404 0 0 1 2.4-2.4Zm16.577 8h-4.601a2.405 2.405 0 0 1-2.401-2.4v-.6H124a1.001 1.001 0 0 0 0-2h-5.002v-.6a2.404 2.404 0 0 1 2.401-2.4H126a1 1 0 1 0 0-2h-4.601a4.409 4.409 0 0 0-4.401 4.4v3.2a4.403 4.403 0 0 0 4.401 4.4H126a1 1 0 1 0 0-2Zm-52.986-10a6.002 6.002 0 0 0-5.886 7.17 6 6 0 0 0 8.183 4.373 6.001 6.001 0 0 0 3.704-5.543 6.006 6.006 0 0 0-6.001-6Zm0 10a4.002 4.002 0 0 1-3.924-4.78 4 4 0 0 1 5.455-2.915 4.002 4.002 0 0 1 2.47 3.695 4.004 4.004 0 0 1-4.001 4Zm-8.001-10h-8.002a1 1 0 1 0 0 2h3.001v9a1 1 0 0 0 2 0v-9h3.001a1 1 0 0 0 0-2Zm25.005 0h-4.6a4.406 4.406 0 0 0-4.402 4.4v6.6a1 1 0 0 0 2 0v-4h5.002a1 1 0 0 0 0-2h-5.002v-.6a2.402 2.402 0 0 1 2.401-2.4h4.601a1 1 0 0 0 0-2Zm12.003 0H97.42a4.406 4.406 0 0 0-4.401 4.4v6.6a1 1 0 0 0 2 0v-4h5.002a1.001 1.001 0 0 0 0-2h-5.002v-.6a2.402 2.402 0 0 1 2.401-2.4h4.601a1 1 0 1 0 0-2Z" fill="#fff"/><defs><linearGradient id="a" x1="10.255" y1="22.009" x2="45.7" y2="12.486" gradientUnits="userSpaceOnUse"><stop stop-color="#9600AD"/><stop offset=".5" stop-color="#EB008B"/><stop offset="1" stop-color="#FF6087"/></linearGradient><linearGradient id="b" x1="5.901" y1="12.677" x2="41.138" y2="8.147" gradientUnits="userSpaceOnUse"><stop stop-color="#9600AD"/><stop offset=".5" stop-color="#EB008B"/><stop offset="1" stop-color="#FF6087"/></linearGradient><linearGradient id="c" x1="11.051" y1="23.762" x2="44.398" y2="7.131" gradientUnits="userSpaceOnUse"><stop stop-color="#9600AD"/><stop offset=".5" stop-color="#EB008B"/><stop offset="1" stop-color="#FF6087"/></linearGradient><linearGradient id="d" x1="9.398" y1="20.152" x2="38.201" y2="-2.037" gradientUnits="userSpaceOnUse"><stop stop-color="#9600AD"/><stop offset=".5" stop-color="#EB008B"/><stop offset="1" stop-color="#FF6087"/></linearGradient></defs></svg>